# xmcd CD database file
#
# Track frame offsets:
#	150
#	8965
#	26953
#	37012
#	60041
#	82280
#	114452
#	179394
#	199274
#	230853
#
# Disc length: 3371 seconds
#
# Revision: 0
# Processed by: cddbd v1.5.1PL0 Copyright (c) Steve Scherf et al.
# Submitted via: CDex 1.51
#
DISCID=890d290a
DTITLE=TETSUYA KOMURO - SYNTHESIZED TRANCE VOL.2
DYEAR=2003
DGENRE=JPop
TTITLE0=HIDDEN FRONTIER
TTITLE1=FOREIGN SHORE (ORIGINAL EXTENDED)
TTITLE2=CLOUD 9
TTITLE3=KOMODO
TTITLE4=ERIDGE TO ETERNITY
TTITLE5=MANY CLASSIC MOMENTS
TTITLE6=IN TRANSIT
TTITLE7=GOING OUT THING
TTITLE8=OUT OF PERSPECTIVE
TTITLE9=絹の道より・・・
EXTD=YEAR: 2003/02/26
EXTT0=
EXTT1=
EXTT2=
EXTT3=
EXTT4=
EXTT5=
EXTT6=
EXTT7=
EXTT8=
EXTT9=
PLAYORDER=
